<?xml version="1.0" encoding="UTF-8"?>
<svg id="Font" xmlns="http://www.w3.org/2000/svg" viewBox="0 0 257.53 241.42">
  <defs>
    <style>
      .cls-1 {
        fill: #3e78e7;
      }

      .cls-2 {
        fill: #fff;
      }
    </style>
  </defs>
  <path class="cls-2" d="M174.39,225.1c-17.14,0-32.09-10.03-38.15-25.56l-7.94-19.32-7.94,19.33c-6.06,15.53-21.02,25.55-38.15,25.55-18.76,0-34.68-11.74-39.66-29.24L4.2,69.71c-3.2-10.55-2.11-21.72,3.08-31.45,5.2-9.73,13.87-16.86,24.42-20.06,3.9-1.19,7.94-1.79,12.01-1.79,18.3,0,34.18,11.77,39.5,29.29l4.71,15.5,2.16-5.25c4.19-10.28,12.19-18.3,22.51-22.54,5.01-2.06,10.29-3.1,15.69-3.1,16.81,0,31.81,10.05,38.2,25.6l2.18,5.3,4.71-15.5c5.32-17.52,21.2-29.29,39.5-29.29,4.06,0,8.1.6,12.01,1.79,10.56,3.21,19.23,10.33,24.42,20.06,5.19,9.73,6.29,20.9,3.08,31.45l-38.33,126.15c-4.98,17.5-20.9,29.24-39.66,29.24h0Z"/>
  <line class="cls-2" x1="136.95" y1="159.17" x2="120.35" y2="199.55"/>
  <path class="cls-1" d="M250.19,37.78c-5.32-9.97-14.21-17.27-25.02-20.55-4-1.21-8.14-1.83-12.3-1.83-18.75,0-35.02,12.06-40.47,30.01l-3.88,12.77-1.09-2.66c-6.55-15.93-21.91-26.23-39.13-26.23-5.53,0-10.94,1.07-16.08,3.18-10.57,4.34-18.76,12.55-23.06,23.09l-1.08,2.62-3.88-12.77c-5.45-17.95-21.72-30.01-40.47-30.01-4.16,0-8.3.62-12.3,1.83-10.81,3.28-19.7,10.58-25.02,20.55C1.07,47.75-.05,59.19,3.23,70l38.32,126.13c5.11,17.93,21.44,29.98,40.63,29.98,17.54,0,32.89-10.28,39.09-26.18l7.01-17.04,7,17.02c6.21,15.92,21.56,26.2,39.1,26.2h0c19.2,0,35.53-12.05,40.63-29.96l38.33-126.15c3.28-10.81,2.16-22.25-3.16-32.22ZM251.4,69.41l-38.33,126.17c-4.85,17.05-20.4,28.51-38.68,28.51-16.7,0-31.3-9.78-37.22-24.93l-7.78-18.94,8.5-20.67c.21-.52-.03-1.11-.55-1.33-.52-.21-1.11.04-1.32.55l-16.6,40.38s0,0,0,0v.02c-5.91,15.13-20.52,24.91-37.22,24.91-18.28,0-33.83-11.46-38.69-28.52L5.18,69.41c-3.13-10.29-2.06-21.19,3-30.68,5.07-9.49,13.53-16.44,23.82-19.57,3.81-1.16,7.75-1.74,11.71-1.74,17.86,0,33.34,11.48,38.53,28.57l4.61,15.18-15.65,38.08c-.21.52.03,1.11.55,1.33.13.05.26.08.39.08.4,0,.78-.24.94-.63l17.15-41.72s0-.06.02-.09l.78-1.89c4.09-10.04,11.89-17.85,21.95-21.99,4.89-2.01,10.04-3.03,15.3-3.03,16.4,0,31.02,9.8,37.26,24.97l.82,2.01s0,0,0,0l17.15,41.72c.16.39.54.63.94.63.13,0,.26-.02.39-.08.52-.21.77-.81.55-1.33l-15.66-38.1,4.6-15.16c5.19-17.09,20.67-28.57,38.53-28.57,3.96,0,7.9.59,11.71,1.74,10.3,3.13,18.76,10.08,23.82,19.57,5.07,9.49,6.13,20.39,3.01,30.68Z"/>
</svg>