<?xml version="1.0" encoding="UTF-8"?>
<svg id="Font" xmlns="http://www.w3.org/2000/svg" viewBox="0 0 187.06 241.42">
  <defs>
    <style>
      .cls-1 {
        fill: #3e78e7;
      }

      .cls-2 {
        fill: #fff;
      }
    </style>
  </defs>
  <path class="cls-2" d="M105.52,224.57C48.11,224.57,1.41,177.87,1.41,120.47S48.11,16.36,105.52,16.36c22.2,0,43.4,6.9,61.31,19.96,8.91,6.5,14.76,16.08,16.46,26.97,1.68,10.73-.86,21.48-7.14,30.31,5.25,7.01,8.22,15.64,8.22,24.72v52.49c0,12.96-6.2,25.33-16.58,33.08-18.1,13.52-39.63,20.67-62.27,20.67Z"/>
  <path class="cls-1" d="M177.39,93.59c6.13-8.93,8.58-19.72,6.9-30.45-1.75-11.16-7.74-20.98-16.87-27.64-18.08-13.19-39.49-20.16-61.9-20.16C47.55,15.35.4,62.5.4,120.47s47.16,105.12,105.12,105.12c22.85,0,44.6-7.22,62.87-20.87,10.64-7.95,16.99-20.62,16.99-33.89v-52.49c0-8.96-2.76-17.5-7.99-24.74ZM183.35,170.82c0,12.64-6.05,24.7-16.17,32.27-17.92,13.39-39.25,20.47-61.66,20.47-56.84,0-103.09-46.25-103.09-103.09S48.67,17.38,105.52,17.38c21.99,0,42.98,6.84,60.71,19.77,8.69,6.34,14.39,15.68,16.06,26.31,1.61,10.28-.76,20.59-6.67,29.12h-66.73c-15.86,0-28.77,12.9-28.77,28.77s12.9,28.77,28.77,28.77h7.88v12.52c0,.56.45,1.02,1.02,1.02s1.02-.45,1.02-1.02v-13.54c0-.56-.45-1.02-1.02-1.02h-8.9c-14.74,0-26.74-11.99-26.74-26.74s11.99-26.74,26.74-26.74h66.71c5.06,6.93,7.75,15.11,7.75,23.72v52.49Z"/>
</svg>