<?xml version="1.0" encoding="UTF-8"?>
<svg xmlns="http://www.w3.org/2000/svg" xmlns:xlink="http://www.w3.org/1999/xlink" viewBox="0 0 228.02 241.42">
  <defs>
    <style>
      .cls-1 {
        fill: url(#linear-gradient-3);
      }

      .cls-2 {
        fill: url(#linear-gradient-2);
      }

      .cls-3 {
        fill: #fff;
      }

      .cls-3, .cls-4, .cls-5 {
        mix-blend-mode: overlay;
      }

      .cls-3, .cls-5 {
        opacity: .4;
      }

      .cls-6 {
        fill: url(#linear-gradient);
      }

      .cls-7 {
        isolation: isolate;
      }

      .cls-4 {
        opacity: .3;
      }
    </style>
    <linearGradient id="linear-gradient" x1="88.1" y1="52.74" x2="141.05" y2="139.9" gradientUnits="userSpaceOnUse">
      <stop offset="0" stop-color="#845fc1"/>
      <stop offset="1" stop-color="#583a93"/>
    </linearGradient>
    <linearGradient id="linear-gradient-2" x1="173.47" y1="165.92" x2="58.68" y2="38.31" gradientUnits="userSpaceOnUse">
      <stop offset="0" stop-color="#e8980f"/>
      <stop offset="1" stop-color="#f6d923"/>
    </linearGradient>
    <linearGradient id="linear-gradient-3" x1="47.75" y1="27.73" x2="180.62" y2="172.01" gradientUnits="userSpaceOnUse">
      <stop offset="0" stop-color="#f68531"/>
      <stop offset="1" stop-color="#eb3312"/>
    </linearGradient>
  </defs>
  <g class="cls-7">
    <g id="Font">
      <g>
        <path class="cls-6" d="M77.98,68.36s32.49,2.41,32.9,11.17c.42,8.77-26.19,15.05-27.94,15.25l-4.97-26.42ZM152.03,53.16s-32.28,4.38-32.16,13.15c.12,8.77,27.05,13.43,28.82,13.52l3.35-26.68ZM152.92,92.37s-32.28,4.38-32.16,13.15c.12,8.78,27.05,13.43,28.82,13.52l3.35-26.68ZM151.36,132.34s-28.01.69-28.74,8.2c-.73,7.51,21.86,14.04,23.36,14.29l5.39-22.49ZM82.4,130.48c1.64-.03,26.83-3.45,27.24-11.6.4-8.15-29.45-13.31-29.45-13.31l2.21,24.91ZM84.52,60.17c1.51-.32,24.23-8.01,23.14-15.64s-29.67-7.03-29.67-7.03l6.53,22.67ZM88.81,158.71c1.47-.49,23.15-10.75,21.18-18.2-1.96-7.45-30.28-3.57-30.28-3.57l9.09,21.76Z"/>
        <path class="cls-4" d="M92.31,70.27c-.51,4.44-.8,10.55,1.01,13.67,2.01,3.44,11.37.25,17.04-2.08-3.7,7.53-25.83,12.74-27.42,12.92l-4.97-26.42s6.87.51,14.33,1.91ZM137.84,55.94c.78,4.4,1.44,10.49-.18,13.7-1.79,3.55-11.34.95-17.13-1.03,4.16,7.29,26.55,11.14,28.15,11.23l3.35-26.68s-6.83.93-14.19,2.78ZM138.73,95.15c.78,4.4,1.44,10.49-.18,13.7-1.79,3.55-11.34.95-17.13-1.03,4.16,7.29,26.55,11.14,28.15,11.23l3.35-26.68s-6.83.93-14.19,2.78ZM138.96,133.37c.25,3.84.24,9.1-1.45,11.7-1.87,2.87-9.78-.26-14.55-2.51,2.86,6.63,21.65,12.04,23.01,12.26l5.39-22.49s-5.92.15-12.39,1.03ZM80.19,105.57l2.21,24.91c1.49-.02,22.44-2.85,26.54-9.49-5.46,1.65-14.41,3.75-15.96.38-1.4-3.05-.58-8.68.29-12.74-6.78-1.97-13.09-3.06-13.09-3.06ZM78,37.51l6.53,22.67c1.38-.29,20.26-6.67,22.88-13.56-4.76,2.5-12.67,6.06-14.71,3.23-1.84-2.57-2.1-7.93-2.02-11.85-6.63-.61-12.68-.48-12.68-.48ZM79.71,136.94l9.09,21.76c1.33-.45,19.36-8.96,21.16-16.1-4.44,3.04-11.89,7.48-14.24,4.9-2.13-2.34-3-7.64-3.37-11.54-6.66.16-12.65.98-12.65.98Z"/>
        <path class="cls-2" d="M26.5,55.67c0-.99,0-23.35,26.64-24.34,26.64-.99,35.19,4.6,35.52,15.13.33,10.52-6.91,90.12,5.26,108.87,12.17,18.75,44.73,14.47,49.34-17.76,4.6-32.23-3.1-92.6.22-99.11,4.97-9.76,36.18-18.2,56.68-2.19,6.25,4.82,7.59,131.57-29.6,159.85-33.22,25.25-102.5,24.35-125.97-15.79-25-42.76-18.09-124.65-18.09-124.65Z"/>
        <path class="cls-1" d="M143.48,38.45c4.87-9.57,34.98-17.87,55.47-3.09-7.62,8.69-26.49,3.87-29.38,19.65-2.46,13.44-16.83,16.05-26.06,16.34-.82-16.74-1.49-30.04-.04-32.9ZM164.64,113.88c-.44-14.42-12.4-18.51-20.14-19.65.4,12.86.47,25.93-.5,36.84,7.74.08,21.11-1.97,20.64-17.19ZM68.6,91.49c3.31,6.98,10.4,9.51,18.23,9.84.04-11.22.46-22.39.88-31.77-9.86,1.8-26.05,7.32-19.11,21.93ZM60.38,45.8c6.66-1.76,9.93-8.53,11.5-13.73-4.9-.77-11.07-1.03-18.73-.74-.2,0-.4.02-.6.03-.37,6.61.29,16.44,7.83,14.44ZM160.04,169.14c1.29,11.36,14.17,12.38,22.99,11.72,6.37-11.4,10.95-26.47,14.15-42.58-12.84,1.28-40.33,6.82-37.14,30.86ZM48.21,107.3c-3.95-15.46,15.79-35.19,4.93-49.01-7.13-9.07-18.79-8.36-26.24-6.61-.4,2.2-.4,3.74-.4,3.98,0,0-3.19,37.87,2.62,75.56,12.57,5.61,22.51-10.51,19.08-23.92ZM141.95,192.51c-7.5,2.44-8.05,12.39-7.59,18.68,9.12-1.72,17.79-4.55,25.41-8.4-3.94-5.27-10.68-12.61-17.82-10.28ZM91.71,150.7c-2.66-7.27-3.99-18.49-4.54-30.94-14.94,4.58-52.3,19.06-30.72,44.11,12.6,13.16,30.01,3.24,35.26-13.18ZM176.48,80.66c-5.26,19.93,9.52,44.29,23.35,41.89,2.55-17.92,3.62-36.06,3.71-51.07-7.23-3.72-22.45-8.33-27.07,9.18ZM77.81,185.25c-9.44-3.49-15.42,4.79-18.58,11.51,8.03,6.18,17.67,10.52,28.02,13.17.7-9.02-.2-21.26-9.44-24.68ZM134.27,157.76c-9.14,9.79-22.98,11.14-32.88,4.93-3.41,9.16-4.91,22.62,11.61,28.81,17,5.56,38.65-12.69,21.26-33.75Z"/>
        <path class="cls-3" d="M95.03,46.72c1.81,1.06,5.13.09,6.89-.74.65-.3,1.37-.84,1.44-1.72.06-.93-.64-1.6-1.3-1.99-1.86-1.09-3.99-1.44-6.02-.98-2.3.52-3.53,3.95-1.01,5.43Z"/>
        <path class="cls-3" d="M96.57,79.05c2.07,1.47,6.37,1.29,8.7.89.86-.15,1.85-.51,2.08-1.36.24-.9-.53-1.73-1.27-2.26-2.13-1.51-4.71-2.36-7.32-2.38-2.95-.03-5.06,3.06-2.19,5.11Z"/>
        <path class="cls-3" d="M95.54,118.2c2.07,1.47,6.37,1.29,8.7.89.86-.15,1.85-.51,2.08-1.36.24-.9-.53-1.73-1.27-2.26-2.13-1.51-4.71-2.36-7.32-2.38-2.95-.03-5.06,3.06-2.19,5.11Z"/>
        <path class="cls-3" d="M98.09,142.92c2.09.91,5.83-.04,7.81-.82.73-.29,1.54-.79,1.58-1.58.04-.83-.78-1.42-1.54-1.75-2.15-.94-4.58-1.2-6.87-.74-2.59.52-3.88,3.63-.98,4.9Z"/>
        <path class="cls-3" d="M134.73,141.92c-2.03,1.04-5.82.31-7.84-.35-.75-.24-1.58-.69-1.67-1.48-.09-.83.69-1.47,1.43-1.84,2.09-1.07,4.5-1.47,6.81-1.15,2.62.36,4.1,3.38,1.27,4.83Z"/>
        <path class="cls-3" d="M134.37,106.07c-2.44,1.25-7,.37-9.43-.42-.9-.29-1.9-.83-2.01-1.78-.11-1,.83-1.76,1.72-2.21,2.51-1.28,5.4-1.77,8.19-1.38,3.15.44,4.92,4.07,1.53,5.8Z"/>
        <path class="cls-3" d="M134.44,67.39c-2.44,1.25-7,.37-9.43-.42-.9-.29-1.9-.83-2.01-1.78-.11-1,.83-1.76,1.72-2.21,2.51-1.28,5.4-1.77,8.19-1.38,3.15.44,4.92,4.07,1.53,5.8Z"/>
        <path class="cls-3" d="M41.04,159.64c-.73.02-12.24-44.58-9.94-84.11,2.3-39.53,25.97-31.36,31.08-21.63,5.1,9.73-4.72,71.34,3.32,100.94,8.04,29.6,26.51,39.08,33.72,42.35,7.21,3.27-5.5,11.87-28.41,0-22.91-11.87-29.76-37.54-29.76-37.54Z"/>
        <path class="cls-3" d="M151.36,104.77s-6.37-53.25,0-62.16c6.37-8.91,19.34-7.68,24.04,15.06,4.69,22.73-.85,78.5-18.33,100.09-17.31,21.13-11.08-3.76-7.68-17.21,3.4-13.45,1.97-35.78,1.97-35.78Z"/>
        <path class="cls-5" d="M170.56,196.11c-23.48,17.85-64.96,22.62-95.56,9.73,34.63,8.54,89.52,6.01,103.48-33.15,17.25-47.04,18.01-117,18.13-138.9,1.21.75,2.4,1.57,3.55,2.47,6.25,4.82,7.59,131.57-29.6,159.85ZM117.53,166.3c-9.07,1.01-18.28-2.78-23.6-10.98-12.17-18.75-4.93-98.34-5.26-108.87-.19-6.2-3.24-10.69-11.17-13.13-1.69,20.23-6.49,89.96,4.8,116.74,10.27,21.36,28.74,18.15,35.23,16.23Z"/>
        <path class="cls-5" d="M48.03,59.81c1.64.1,3.48,1.47,4.32,2.82.94,1.5,1.07,3.52.19,5.06s-2.8,2.45-4.52,2.01c-1.15-.3-2.12-1.14-2.75-2.15-.81-1.3-1.1-2.94-.71-4.42.39-1.46,1.76-3.42,3.46-3.32ZM33.19,75.49c.54,1.02,1.52,1.81,2.63,2.12.76.21,1.63.19,2.29-.23.7-.45,1.07-1.25,1.32-2.04.38-1.16.58-2.43.26-3.61-.32-1.18-1.26-2.25-2.47-2.43-3.33-.51-5.47,3.5-4.04,6.19ZM41.07,87.72c.94,1.38,2.79,2.06,4.4,1.62,1.61-.44,2.85-1.97,2.96-3.64.1-1.67-.94-3.34-2.48-3.98-3.65-1.51-7.11,2.73-4.88,6ZM58.03,95.28c1.31.16,2.67-.69,3.11-1.93.99-2.77-2.38-4.94-4.7-3.41-2.17,1.44-.79,5.05,1.59,5.33ZM171.07,114.92c1.64.1,3.48,1.47,4.32,2.82.94,1.5,1.07,3.52.19,5.06s-2.8,2.45-4.52,2.01c-1.15-.3-2.12-1.14-2.75-2.15-.81-1.3-1.1-2.94-.71-4.42.39-1.46,1.76-3.42,3.46-3.32ZM153.36,120.01c.54,1.02,1.52,1.81,2.63,2.12.76.21,1.63.19,2.29-.23.7-.45,1.07-1.25,1.32-2.04.38-1.16.58-2.43.26-3.61s-1.26-2.25-2.47-2.43c-3.33-.51-5.46,3.5-4.04,6.19ZM157.89,137.11c.94,1.38,2.79,2.06,4.4,1.62s2.85-1.97,2.96-3.64c.1-1.67-.94-3.34-2.48-3.98-3.65-1.51-7.11,2.73-4.88,6ZM182.18,135.25c1.31.16,2.67-.69,3.11-1.93.99-2.77-2.38-4.94-4.7-3.41-2.17,1.44-.79,5.05,1.59,5.33ZM162.9,46.03c1.42-.27,3.05.13,3.86,1.33.57.84.64,1.92.55,2.93-.34,4.1-3.07,7.91-6.84,9.55-1.47.64-3.37.89-4.51-.24-.9-.89-.97-2.32-.8-3.57.55-4.05,3.38-9.18,7.74-10ZM176.91,43.49c-.46.96-.76,2.04-.6,3.09s.83,2.07,1.84,2.42c1.41.49,2.91-.41,4.06-1.36,1.01-.84,1.98-1.77,2.56-2.95,1.14-2.32.08-5.26-2.72-5.54-2.23-.23-4.29,2.59-5.13,4.34ZM185.33,53.45c-.15.53-.18,1.16.16,1.6.42.54,1.24.57,1.9.39.95-.26,1.79-.88,2.33-1.7.5-.76.69-1.89.03-2.53-.34-.33-.84-.45-1.31-.42-1.56.08-2.69,1.19-3.11,2.66ZM178.04,62.47c.29.8,1.1,1.37,1.95,1.47.85.1,1.72-.21,2.39-.75.63-.51,1.12-1.25,1.18-2.06.06-.81-.36-1.68-1.1-2.01-.57-.26-1.24-.19-1.82.05-1.3.54-3.23,1.58-2.6,3.31ZM159.37,74.23c.08.79.42,1.66,1.16,1.94.74.28,1.55-.13,2.22-.55,1.04-.65,2.08-1.41,2.61-2.52.54-1.1.39-2.62-.62-3.31-.64-.43-1.49-.45-2.24-.23-2.23.66-3.36,2.31-3.13,4.66ZM64.67,138.57c1.3-.14,2.76.31,3.45,1.42.89,1.43.25,3.31-.64,4.73-1.54,2.46-3.78,4.47-6.38,5.73-1.35.65-3.02,1.09-4.29.3-.87-.54-1.36-1.58-1.43-2.6-.07-1.02.22-2.04.63-2.98,1.56-3.62,4.69-6.18,8.67-6.6ZM63.27,160.8c-.29.46-.55.95-.64,1.48-.09.53.03,1.13.42,1.5.43.42,1.09.48,1.69.47,2.85-.04,5.66-1.36,7.52-3.52.76-.89,1.39-2.09,1.01-3.2-1.71-4.91-8.73,1.24-10,3.26ZM81.27,155.32c.92.23,1.85-.3,2.65-.81.98-.62,1.97-1.26,2.68-2.17s1.08-2.17.66-3.25c-2.4-6.07-10.92,5.01-5.99,6.23ZM114.53,177.22c2.84-1.63,6.61-.6,6.74,3.07.05,1.45-.51,2.87-1.3,4.1-1.49,2.32-3.83,4.09-6.47,4.9-1.29.4-2.92.48-3.79-.56-.59-.71-.64-1.71-.55-2.63.33-3.34,2.37-7.16,5.36-8.88ZM121.29,193.47c-.24.64-.43,1.37-.11,1.97.37.7,1.27.92,2.07.94,3.48.11,6.89-2.23,8.05-5.51,1.4-3.96-2.22-4.44-5.09-3.33-2.46.95-4.02,3.54-4.92,5.92ZM138.93,188.07c1.04.84,2.6.5,3.75-.17,1.13-.67,2.13-1.67,2.5-2.93.87-2.93-2.08-4.92-4.59-3.34-1.76,1.11-3.69,4.81-1.66,6.44ZM141.07,197.16c-.2.51-.38,1.08-.18,1.59.24.61.96.92,1.61.86s1.24-.41,1.77-.79c.66-.47,1.29-1.02,1.65-1.74.77-1.55-.23-3.12-1.98-2.93-1.44.16-2.4,1.81-2.87,3.01ZM157.24,191.01c-.34.57-.49,1.27-.25,1.89.26.67.97,1.11,1.69,1.16.72.05,1.43-.24,2-.68.57-.44,1-1.03,1.39-1.64.37-.58.71-1.25.56-1.91-.17-.75-.95-1.25-1.72-1.25-1.38,0-2.99,1.31-3.66,2.44ZM131.24,179.74c.38.2.85.07,1.24-.12,1.5-.73,3.73-4.81.56-4.47-1.43.15-3.34,3.8-1.79,4.59Z"/>
      </g>
    </g>
  </g>
</svg>