<?xml version="1.0" encoding="UTF-8"?>
<svg xmlns="http://www.w3.org/2000/svg" xmlns:xlink="http://www.w3.org/1999/xlink" viewBox="0 0 241.42 241.42">
  <defs>
    <style>
      .cls-1 {
        fill: #fff;
      }

      .cls-1, .Graphic_Style_96 {
        mix-blend-mode: overlay;
        opacity: .3;
      }

      .cls-2 {
        fill: url(#linear-gradient);
      }

      .cls-3 {
        isolation: isolate;
      }

      .cls-4 {
        fill: #24441e;
      }
    </style>
    <linearGradient id="linear-gradient" x1="-459.55" y1="121.59" x2="-253.97" y2="121.59" gradientTransform="translate(-235.8) rotate(-180) scale(1 -1)" gradientUnits="userSpaceOnUse">
      <stop offset="0" stop-color="#99bb3c"/>
      <stop offset="1" stop-color="#47863e"/>
    </linearGradient>
  </defs>
  <g class="cls-3">
    <g id="Font">
      <g>
        <path class="cls-2" d="M218.33,4.09s10.88,48.18,0,51.05c-10.88,2.87-41.97-1.18-36.53,13.67,5.44,14.85,39.98,4.01,41.36,9.82,1.38,5.81.6,41.11-5.61,43.28-6.22,2.17-48.18-16.16-51.29,0-3.11,16.16,39.64,15.33,45.85,18.46,6.22,3.13-8.73,42.59-17.19,43.07-8.46.48-38.77-33.5-49.65-25.84-10.88,7.66-15.54,23.98,27.98,51.19,13.21,9.33-26.47,38.08-35.39,27.98-8.91-10.1-19.02-51.11-28.34-44.6-9.33,6.51,13.99,50.39,4.66,46.72-9.33-3.68-34.2,1.08-48.18-49.48-39.64-10.15-52.07-43.13-46.63-45.68,5.44-2.55,30.31,16.54,40.41,0,10.1-16.54-9.33-27.42-36.53-16.93-7.77,3.49-6.22-24.23,19.43-42.62,11.66-7.51,35.75,52,58.29,23.8,10.88-18.1-36.53-33.88-34.97-41.92,1.55-8.04,15.54-15.81,28.76-18.92,3.89,24.09,22.54,52.12,35.75,31.5,13.21-20.62-17.1-36.83-16.32-42.71.78-5.89,24.09-21.02,38.86-14.62-3.11,33.6,17.87,39.85,17.87-3.3,1.55-8.18,47.41-13.91,47.41-13.91Z"/>
        <path class="Graphic_Style_96" d="M75.92,67.8c-1.66,1.56-3.24,3.16-4.76,4.77-3.37-2.53-5.5-4.72-5.15-6.53,1.55-8.04,15.54-15.81,28.76-18.92.3,1.86.69,3.75,1.16,5.63-7.61,4.77-14.43,9.8-20,15.04ZM23.26,126.79c7.87-3.04,15.09-4.28,21.13-4.12,2.21-9.83,6.12-20.43,12.26-30.82-5.57-5.92-10.36-10-13.97-7.68-25.65,18.39-27.2,46.11-19.43,42.62ZM66.01,189.39c13.99,50.56,38.86,45.8,48.18,49.48,3.82,1.5,2.17-4.96-.48-13.57-6.03-.67-10.83-1.89-13.83-3.27-14.9-6.83-20.08-43.1-18.52-43.06,1.55.04,45.46-72.32,45.46-72.32,0,0-67.23,66.45-78.11,58.86-3.01-2.1-5.31-7.68-6.22-15.44-9.79-1.75-19.89-7.88-23.13-6.36-5.44,2.55,6.99,35.53,46.63,45.68ZM175.72,212.14c-15.07,8.65-30.83,12.41-44.29,13.41,2.2,4.76,4.35,8.83,6.44,11.2,8.01,9.08,40.88-13.23,37.85-24.61ZM218.33,4.09s-45.85,5.73-47.41,13.91c0,.26,0,.5,0,.76,26.55-9.3,47.41-14.66,47.41-14.66ZM114.19,35.91c-.16,1.24,1.06,2.95,2.97,5.06,11.55-5.75,23.79-10.96,35.62-15.54.05-1.33.13-2.7.27-4.13-14.77-6.4-38.08,8.73-38.86,14.62Z"/>
        <path class="cls-4" d="M177.41,48.61c2.12-2.03-1.16-5.27-3.42-3.4-13.5,11.17-36.02,35.45-66.79,87.75-31.09,49.39-87.04,74.55-85.49,82.95,1.55,8.4,10.88,7.92,26.42,0,15.54-7.92,50.52-45.27,67.61-75.55,14.2-25.15,38.8-69.84,61.66-91.75Z"/>
        <path class="cls-1" d="M66.24,102.26c10.66,11.15,22.91,20.5,34.74,5.7,6.54-10.88-7.98-20.92-20.27-28.95,6.38-6.96,13.4-11.67,19.09-14.68,5.11,12,12.94,21.64,20.59,21.44-9.38,25.1-33.71,42.55-47.9,44.58-13.3,1.91-13.9-10.76-6.26-28.1ZM145.28,157.59c6.6-4.65,20.33,6.01,32.01,15.02,4.38-5.01,8.52-10.69,12.1-16.82,3.67-6.29,6.75-12.22,9.33-17.76-14.49-1.85-34.63-4.86-32.46-16.13,2.26-11.74,25.04-5.27,39.71-1.69,3.91-11.26,5.66-19.99,6.86-25.72.74-3.52,1.84-10.23,2.36-17.75-10.91.19-29.51,2.63-33.38-7.93-4.88-13.32,19.63-11.43,32.59-12.97-1.15-5.89-3.33-10.8-7.13-13.29-12.43-8.16-68,55.91-78.49,128.01-1.39,22.15,9.11,27.34,22.56,22.05-19.28-17.7-14.58-29.01-6.05-35.02Z"/>
      </g>
    </g>
  </g>
</svg>